<svg xmlns="http://www.w3.org/2000/svg" xmlns:xlink="http://www.w3.org/1999/xlink" width="30" height="30" viewBox="0 0 30 30">
  <defs>
    <clipPath id="clip-path">
      <path id="Combined_Shape" data-name="Combined Shape" d="M3.9,28A3.863,3.863,0,0,1,0,24.182V6.364A3.864,3.864,0,0,1,3.9,2.545H6.5V1.273a1.3,1.3,0,0,1,2.6,0V2.545h7.8V1.273a1.3,1.3,0,0,1,2.6,0V2.545h2.6A3.864,3.864,0,0,1,26,6.364V24.182A3.863,3.863,0,0,1,22.1,28ZM2.6,24.182a1.287,1.287,0,0,0,1.3,1.273H22.1a1.287,1.287,0,0,0,1.3-1.273V12.727H2.6Zm20.8-14V6.364A1.288,1.288,0,0,0,22.1,5.09H19.5V6.364a1.3,1.3,0,0,1-2.6,0V5.09H9.1V6.364a1.3,1.3,0,0,1-2.6,0V5.09H3.9A1.288,1.288,0,0,0,2.6,6.364v3.818Z" transform="translate(0 0)" fill="#292929"/>
    </clipPath>
  </defs>
  <g id="calendar" opacity="0.6">
    <g id="Group_169" data-name="Group 169" transform="translate(2 1)">
      <path id="Combined_Shape-2" data-name="Combined Shape" d="M3.9,28A3.863,3.863,0,0,1,0,24.182V6.364A3.864,3.864,0,0,1,3.9,2.545H6.5V1.273a1.3,1.3,0,0,1,2.6,0V2.545h7.8V1.273a1.3,1.3,0,0,1,2.6,0V2.545h2.6A3.864,3.864,0,0,1,26,6.364V24.182A3.863,3.863,0,0,1,22.1,28ZM2.6,24.182a1.287,1.287,0,0,0,1.3,1.273H22.1a1.287,1.287,0,0,0,1.3-1.273V12.727H2.6Zm20.8-14V6.364A1.288,1.288,0,0,0,22.1,5.09H19.5V6.364a1.3,1.3,0,0,1-2.6,0V5.09H9.1V6.364a1.3,1.3,0,0,1-2.6,0V5.09H3.9A1.288,1.288,0,0,0,2.6,6.364v3.818Z" transform="translate(0 0)" fill="#292929"/>
      <g id="Mask_Group_169" data-name="Mask Group 169" clip-path="url(#clip-path)">
        <g id="COLOR_black" data-name="COLOR/ black" transform="translate(-2.6 -1.273)">
          <rect id="Rectangle" width="41.6" height="40.727" fill="#292929"/>
        </g>
      </g>
    </g>
  </g>
</svg>
