<svg xmlns="http://www.w3.org/2000/svg" xmlns:xlink="http://www.w3.org/1999/xlink" width="120" height="120" viewBox="0 0 120 120">
  <defs>
    <clipPath id="clip-path">
      <path id="Combined_Shape" data-name="Combined Shape" d="M9.169,91.111a60.71,60.71,0,0,1,4.48-70.442C30.026.805,57.052-5.523,80.079,5.111A5.44,5.44,0,0,1,82.7,12.192a5.106,5.106,0,0,1-6.831,2.718A45.452,45.452,0,0,0,21.518,27.639a49.673,49.673,0,0,0-3.669,57.636c11.227,17.933,32.493,26.076,52.269,20.013S103.468,80.4,103.478,59.03V54.043a5.179,5.179,0,1,1,10.351,0v4.991c-.019,26.129-16.61,49.135-40.777,56.54A54.977,54.977,0,0,1,56.914,118,56.442,56.442,0,0,1,9.169,91.111ZM53.257,73.55,37.732,57.461a5.507,5.507,0,0,1,0-7.588,5.056,5.056,0,0,1,7.32,0l11.86,12.3,53.256-55.2a5.043,5.043,0,0,1,7.315,0,5.5,5.5,0,0,1,0,7.583l-56.912,59a5.043,5.043,0,0,1-7.315,0Z" transform="translate(0 0)" fill="#ff6c37"/>
    </clipPath>
  </defs>
  <g id="check-circle" transform="translate(0)">
    <g id="Group_151" data-name="Group 151" transform="translate(0 1)">
      <path id="Combined_Shape-2" data-name="Combined Shape" d="M9.169,91.111a60.71,60.71,0,0,1,4.48-70.442C30.026.805,57.052-5.523,80.079,5.111A5.44,5.44,0,0,1,82.7,12.192a5.106,5.106,0,0,1-6.831,2.718A45.452,45.452,0,0,0,21.518,27.639a49.673,49.673,0,0,0-3.669,57.636c11.227,17.933,32.493,26.076,52.269,20.013S103.468,80.4,103.478,59.03V54.043a5.179,5.179,0,1,1,10.351,0v4.991c-.019,26.129-16.61,49.135-40.777,56.54A54.977,54.977,0,0,1,56.914,118,56.442,56.442,0,0,1,9.169,91.111ZM53.257,73.55,37.732,57.461a5.507,5.507,0,0,1,0-7.588,5.056,5.056,0,0,1,7.32,0l11.86,12.3,53.256-55.2a5.043,5.043,0,0,1,7.315,0,5.5,5.5,0,0,1,0,7.583l-56.912,59a5.043,5.043,0,0,1-7.315,0Z" transform="translate(0 0)" fill="#ff6c37"/>
      <g id="Mask_Group_151" data-name="Mask Group 151" transform="translate(0 0)" clip-path="url(#clip-path)">
        <g id="COLOR_black" data-name="COLOR/ black" transform="translate(0.001 -5.364)">
          <rect id="Rectangle" width="165.565" height="171.63" fill="#ff6c37"/>
        </g>
      </g>
    </g>
  </g>
</svg>
