<svg id="corner-right-up" xmlns="http://www.w3.org/2000/svg" xmlns:xlink="http://www.w3.org/1999/xlink" width="30" height="30" viewBox="0 0 30 30">
  <defs>
    <clipPath id="clip-path">
      <path id="Combined_Shape" data-name="Combined Shape" d="M1.333,24a1.333,1.333,0,1,1,0-2.666h9.334a4,4,0,0,0,4-4V4.552L10.276,8.942A1.333,1.333,0,1,1,8.391,7.057L15.051.4A1.335,1.335,0,0,1,16.5.1l.006,0,.022.009.013.006.014.006.02.009.007,0,.026.013h0a1.333,1.333,0,0,1,.336.244L23.61,7.057a1.333,1.333,0,0,1-1.886,1.885L17.333,4.552V17.333A6.666,6.666,0,0,1,10.667,24Z" fill="#fff"/>
    </clipPath>
  </defs>
  <g id="Group_43" data-name="Group 43" transform="translate(3 3)">
    <path id="Combined_Shape-2" data-name="Combined Shape" d="M1.333,24a1.333,1.333,0,1,1,0-2.666h9.334a4,4,0,0,0,4-4V4.552L10.276,8.942A1.333,1.333,0,1,1,8.391,7.057L15.051.4A1.335,1.335,0,0,1,16.5.1l.006,0,.022.009.013.006.014.006.02.009.007,0,.026.013h0a1.333,1.333,0,0,1,.336.244L23.61,7.057a1.333,1.333,0,0,1-1.886,1.885L17.333,4.552V17.333A6.666,6.666,0,0,1,10.667,24Z" fill="#fff"/>
    <g id="Mask_Group_43" data-name="Mask Group 43" clip-path="url(#clip-path)">
      <g id="_Color" data-name="🎨Color" transform="translate(-4 -4)">
        <rect id="Rectangle" width="32" height="32" fill="#fff"/>
      </g>
    </g>
  </g>
</svg>
