<svg id="heart" xmlns="http://www.w3.org/2000/svg" xmlns:xlink="http://www.w3.org/1999/xlink" width="30.903" height="30" viewBox="0 0 30.903 30">
  <defs>
    <clipPath id="clip-path">
      <path id="Shape" d="M13.559,25.852,2.4,14.39a8.594,8.594,0,0,1,0-11.921,8.051,8.051,0,0,1,11.6,0l.445.457L14.9,2.47a8.048,8.048,0,0,1,11.6,0,8.592,8.592,0,0,1,0,11.92L15.343,25.852a1.238,1.238,0,0,1-1.784,0Z" fill="none" stroke="#ffc107" stroke-width="2"/>
    </clipPath>
  </defs>
  <g id="Group_190" data-name="Group 190" transform="translate(1 2)">
    <path id="Shape-2" data-name="Shape" d="M13.559,25.852,2.4,14.39a8.594,8.594,0,0,1,0-11.921,8.051,8.051,0,0,1,11.6,0l.445.457L14.9,2.47a8.048,8.048,0,0,1,11.6,0,8.592,8.592,0,0,1,0,11.92L15.343,25.852a1.238,1.238,0,0,1-1.784,0Z" transform="translate(0)" fill="none" stroke="#ffc107" stroke-width="2"/>
    <g id="Mask_Group_190" data-name="Mask Group 190" transform="translate(0)" clip-path="url(#clip-path)">
      <g id="COLOR_black" data-name="COLOR/ black" transform="translate(-1.262 -2.593)">
        <g id="Rectangle" fill="none" stroke="#ffc107" stroke-miterlimit="10" stroke-width="2">
          <rect width="30.287" height="31.118" stroke="none"/>
          <rect x="1" y="1" width="28.287" height="29.118" fill="none"/>
        </g>
      </g>
    </g>
  </g>
</svg>
