<svg xmlns="http://www.w3.org/2000/svg" width="26.413" height="33.291" viewBox="0 0 26.413 33.291">
  <g id="Icon" transform="translate(0)">
    <path id="Path_4" data-name="Path 4" d="M857.177,3206l.441.014.415.035.389.077.37.1.337.112.331.14.292.154.273.161.3.2.273.2.234.2.2.2.169.189.143.175.11.154.084.126.058.091.039.063.006.028h.045l.052.014.065.021.084.021.084.028.1.049.11.063.123.07.123.091.123.112.13.133.13.147.123.175.11.2.117.224.1.252.091.28.084.315.065.357.058.385.032.427.006.455-.006.5-.032.545-.058.573-.091.636-.1.455-.13.476.1-.007.1.007.1.021.1.035.084.049.084.077.071.091.065.126.052.147.032.182.019.217-.006.245-.019.273-.045.322-.065.364-.1.392-.136.469-.123.392-.117.336-.123.273-.123.224-.11.175-.117.126-.1.084-.091.049-.1.028-.078.427-.11.434-.149.448-.182.455-.214.448-.253.434-.273.434-.312.406-.338.392-.37.364-.4.336-.422.308-.454.252-.467.21-.493.161-.487.091-.5.035-.5-.035-.487-.091-.487-.147-.48-.217-.461-.259-.428-.294-.389-.336-.37-.364-.338-.4-.312-.4-.273-.441-.247-.434-.214-.455-.182-.448-.136-.441-.117-.448-.071-.427-.1-.028-.1-.049-.1-.084-.11-.126-.11-.175-.123-.224-.123-.273-.123-.336-.13-.385-.13-.462-.1-.406-.078-.357-.032-.322-.032-.28v-.245l.019-.2.039-.182.045-.154.058-.119.078-.1.084-.07.091-.049.1-.042.1-.021h.208l-.136-.461-.1-.469-.084-.51-.058-.517-.019-.51.013-.483.045-.482.1-.476.136-.531.175-.49.214-.469.247-.434.26-.406.286-.378.3-.35.351-.378.364-.35.383-.315.4-.294.344-.245.357-.21.376-.2.383-.161.422-.119.441-.1.461-.035.474-.035Z" transform="translate(-844.489 -3206)" fill="#ccc" fill-rule="evenodd"/>
    <path id="Path_5" data-name="Path 5" d="M852.508,3224.5l2.1,7.272.4,1.378.013-.021.342,1.161,1.1-3.448-.27-.426-.224-.4-.184-.375-.151-.332-.105-.317-.079-.289-.046-.26-.02-.231.013-.217.026-.187.059-.18.066-.159.092-.123.1-.123.112-.094.125-.094.125-.079.131-.05.131-.051.125-.043.138-.029.112-.021.112-.015.105-.007.086-.007h.309l.085.007.105.007.112.015.112.021.138.029.125.043.131.051.132.05.125.079.125.094.112.094.1.123.092.123.066.159.059.18.026.188.013.217-.02.231-.046.26-.079.289-.105.317-.151.332-.184.375-.224.4-.27.426,1.1,3.448.342-1.161.013.021.388-1.378,2.1-7.272.02.007.072.058.1.072.145.1.191.13.224.152.243.159.289.18.309.195.349.2.368.209.395.2.414.209.441.209.46.2.473.195.493.188.506.166.513.159.375.13.335.166.3.195.263.231.23.26.21.274.171.3.151.31.125.325.105.332.086.346.059.332.046.346.039.332.02.325.007.31v.3l-.007.274-.013.26v.029l-.007.108-.013.159-.02.209-.02.238-.013.281-.033.289-.026.3-.033.318-.026.3-.026.289-.039.26-.026.231-.02.022-.066.043-.105.058-.145.1-.191.108-.23.137-.263.144-.309.173-.342.166-.381.188-.421.188-.454.195-.5.2-.533.195-.559.2-.6.188-.625.173-.671.18-.7.166-.73.144-.763.137-.8.115-.822.087-.868.072-.881.043-.927.007-.907-.007-.894-.043-.855-.072-.822-.094-.8-.115-.763-.13-.73-.151-.7-.159-.671-.18-.625-.173-.6-.2-.559-.187-.533-.195-.5-.2-.454-.195-.421-.187-.381-.188-.342-.18-.309-.159-.263-.144-.23-.137-.191-.108-.145-.1-.105-.058-.066-.043-.02-.022-.026-.231-.039-.26-.026-.289-.026-.3-.033-.318-.026-.3-.033-.289-.013-.281-.02-.238-.02-.209-.013-.159-.007-.108v-.029l-.013-.26-.007-.274v-.3l.007-.31.02-.325.033-.332.046-.346.066-.332.079-.346.105-.332.118-.325.158-.31.178-.3.2-.274.224-.26.27-.231.3-.195.335-.166.368-.13.526-.159.506-.166.487-.187.473-.195.46-.2.434-.209.421-.209.4-.2.362-.209.342-.2.316-.195.283-.18.256-.159.224-.152.178-.13.145-.1.105-.072.066-.058.02-.007Z" transform="translate(-844 -3206)" fill="#ccc" fill-rule="evenodd"/>
  </g>
</svg>
