<svg xmlns="http://www.w3.org/2000/svg" width="32.016" height="27.091" viewBox="0 0 32.016 27.091">
  <g id="Icon_ionic-ios-options" data-name="Icon ionic-ios-options" transform="translate(-3.375 -5.625)">
    <path id="Path_183" data-name="Path 183" d="M22.716,27.206A3.2,3.2,0,0,1,25.54,24.75a3.2,3.2,0,0,1,2.825,2.456h5.8c.677,0,1.231.737,1.231,1.637h0c0,.9-.554,1.637-1.231,1.637h-5.8a3.2,3.2,0,0,1-2.825,2.456,3.2,3.2,0,0,1-2.825-2.456H4.606c-.677,0-1.231-.737-1.231-1.637h0c0-.9.554-1.637,1.231-1.637Z" transform="translate(0 -0.22)" fill="#fff"/>
    <path id="Path_184" data-name="Path 184" d="M10.4,17.643a3.2,3.2,0,0,1,2.825-2.456,3.2,3.2,0,0,1,2.825,2.456H34.16c.677,0,1.231.737,1.231,1.637h0c0,.9-.554,1.637-1.231,1.637H16.051a3.2,3.2,0,0,1-2.825,2.456A3.2,3.2,0,0,1,10.4,20.918h-5.8c-.677,0-1.231-.737-1.231-1.637h0c0-.9.554-1.637,1.231-1.637Z" transform="translate(0 -0.11)" fill="#fff"/>
    <path id="Path_185" data-name="Path 185" d="M22.716,8.081A3.2,3.2,0,0,1,25.54,5.625a3.2,3.2,0,0,1,2.825,2.456h5.8c.677,0,1.231.737,1.231,1.637h0c0,.9-.554,1.637-1.231,1.637h-5.8a3.2,3.2,0,0,1-2.825,2.456,3.2,3.2,0,0,1-2.825-2.456H4.606c-.677,0-1.231-.737-1.231-1.637h0c0-.9.554-1.637,1.231-1.637Z" transform="translate(0)" fill="#fff"/>
  </g>
</svg>
