<svg id="map-pin" xmlns="http://www.w3.org/2000/svg" xmlns:xlink="http://www.w3.org/1999/xlink" width="30" height="30" viewBox="0 0 30 30">
  <defs>
    <clipPath id="clip-path">
      <path id="Combined_Shape" data-name="Combined Shape" d="M13,30a1.333,1.333,0,0,1-.721-.21c-.113-.072-.3-.2-.543-.366-.41-.284-.873-.622-1.375-1a40.008,40.008,0,0,1-4.156-3.654C2.088,20.585,0,16.458,0,12.5A12.772,12.772,0,0,1,13,0,12.772,12.772,0,0,1,26,12.5c0,3.959-2.088,8.086-6.206,12.266a39.833,39.833,0,0,1-4.156,3.654c-.461.353-.924.691-1.375,1-.292.2-.472.319-.539.363A1.34,1.34,0,0,1,13,30ZM13,2.5a10.218,10.218,0,0,0-10.4,10c0,3.3,1.849,6.847,5.494,10.547a37.218,37.218,0,0,0,3.888,3.417c.34.261.682.514,1.018.753.338-.241.681-.494,1.018-.753a37.218,37.218,0,0,0,3.888-3.417C21.552,19.348,23.4,15.8,23.4,12.5A10.218,10.218,0,0,0,13,2.5Zm0,15a5.109,5.109,0,0,1-5.2-5,5.108,5.108,0,0,1,5.2-5,5.109,5.109,0,0,1,5.2,5A5.109,5.109,0,0,1,13,17.5ZM13,10a2.5,2.5,0,1,0,2.6,2.5A2.554,2.554,0,0,0,13,10Z" transform="translate(0)" fill="#707070"/>
    </clipPath>
  </defs>
  <g id="Group_102" data-name="Group 102" transform="translate(2 0)">
    <path id="Combined_Shape-2" data-name="Combined Shape" d="M13,30a1.333,1.333,0,0,1-.721-.21c-.113-.072-.3-.2-.543-.366-.41-.284-.873-.622-1.375-1a40.008,40.008,0,0,1-4.156-3.654C2.088,20.585,0,16.458,0,12.5A12.772,12.772,0,0,1,13,0,12.772,12.772,0,0,1,26,12.5c0,3.959-2.088,8.086-6.206,12.266a39.833,39.833,0,0,1-4.156,3.654c-.461.353-.924.691-1.375,1-.292.2-.472.319-.539.363A1.34,1.34,0,0,1,13,30ZM13,2.5a10.218,10.218,0,0,0-10.4,10c0,3.3,1.849,6.847,5.494,10.547a37.218,37.218,0,0,0,3.888,3.417c.34.261.682.514,1.018.753.338-.241.681-.494,1.018-.753a37.218,37.218,0,0,0,3.888-3.417C21.552,19.348,23.4,15.8,23.4,12.5A10.218,10.218,0,0,0,13,2.5Zm0,15a5.109,5.109,0,0,1-5.2-5,5.108,5.108,0,0,1,5.2-5,5.109,5.109,0,0,1,5.2,5A5.109,5.109,0,0,1,13,17.5ZM13,10a2.5,2.5,0,1,0,2.6,2.5A2.554,2.554,0,0,0,13,10Z" transform="translate(0)" fill="#707070"/>
    <g id="Mask_Group_102" data-name="Mask Group 102" clip-path="url(#clip-path)">
      <g id="COLOR_black" data-name="COLOR/ black" transform="translate(-2.6 0)">
        <rect id="Rectangle" width="31.2" height="30" fill="#707070"/>
      </g>
    </g>
  </g>
</svg>
