<svg xmlns="http://www.w3.org/2000/svg" xmlns:xlink="http://www.w3.org/1999/xlink" width="30.002" height="30" viewBox="0 0 30.002 30">
  <defs>
    <clipPath id="clip-path">
      <path id="Shape" d="M23.7,27.911a26.47,26.47,0,0,1-11.542-4.1,26.1,26.1,0,0,1-8.03-8.024A26.472,26.472,0,0,1,.016,4.165,3.82,3.82,0,0,1,3.819,0H7.63a3.824,3.824,0,0,1,3.823,3.3,15.081,15.081,0,0,0,.822,3.3,3.821,3.821,0,0,1-.866,4.036l-.914.912a19.116,19.116,0,0,0,5.844,5.841l.919-.918a3.822,3.822,0,0,1,4.03-.861,15.12,15.12,0,0,0,3.313.823,3.822,3.822,0,0,1,3.288,3.861v3.8a3.818,3.818,0,0,1-3.83,3.835Q23.879,27.927,23.7,27.911Z" transform="translate(0 0)" fill="none" stroke="#707070" stroke-width="2"/>
    </clipPath>
  </defs>
  <g id="phone" transform="translate(0.002 0)">
    <g id="Group_200" data-name="Group 200" transform="translate(1 1)">
      <path id="Shape-2" data-name="Shape" d="M23.7,27.911a26.47,26.47,0,0,1-11.542-4.1,26.1,26.1,0,0,1-8.03-8.024A26.472,26.472,0,0,1,.016,4.165,3.82,3.82,0,0,1,3.819,0H7.63a3.824,3.824,0,0,1,3.823,3.3,15.081,15.081,0,0,0,.822,3.3,3.821,3.821,0,0,1-.866,4.036l-.914.912a19.116,19.116,0,0,0,5.844,5.841l.919-.918a3.822,3.822,0,0,1,4.03-.861,15.12,15.12,0,0,0,3.313.823,3.822,3.822,0,0,1,3.288,3.861v3.8a3.818,3.818,0,0,1-3.83,3.835Q23.879,27.927,23.7,27.911Z" transform="translate(0 0)" fill="none" stroke="#707070" stroke-width="2"/>
      <g id="Mask_Group_200" data-name="Mask Group 200" clip-path="url(#clip-path)">
        <g id="COLOR_black" data-name="COLOR/ black" transform="translate(-1.274 -1.273)">
          <g id="Rectangle" fill="none" stroke="#979797" stroke-miterlimit="10" stroke-width="2">
            <rect width="30.579" height="30.567" stroke="none"/>
            <rect x="1" y="1" width="28.579" height="28.567" fill="none"/>
          </g>
        </g>
      </g>
    </g>
  </g>
</svg>
