<svg id="settings" xmlns="http://www.w3.org/2000/svg" xmlns:xlink="http://www.w3.org/1999/xlink" width="30" height="30" viewBox="0 0 30 30">
  <defs>
    <clipPath id="clip-path">
      <path id="Combined_Shape" data-name="Combined Shape" d="M11.35,26.249a.874.874,0,0,0-.605-.856.815.815,0,0,0-.331-.07.8.8,0,0,0-.556.223l-.074.074a3.749,3.749,0,0,1-5.305,0,3.777,3.777,0,0,1-1.1-2.653,3.726,3.726,0,0,1,1.1-2.653l.065-.065a.819.819,0,0,0,.157-.909.81.81,0,0,0-.739-.492H3.75a3.75,3.75,0,0,1,0-7.5.875.875,0,0,0,.857-.605.81.81,0,0,0-.153-.886L4.38,9.784a3.751,3.751,0,1,1,5.3-5.305l.065.065a.809.809,0,0,0,.9.162,1.314,1.314,0,0,1,.25-.08.807.807,0,0,0,.355-.664V3.75a3.75,3.75,0,0,1,7.5,0v.108a.839.839,0,0,0,.835.819.8.8,0,0,0,.556-.223l.074-.074a3.727,3.727,0,0,1,2.654-1.1,3.772,3.772,0,0,1,2.652,1.1,3.749,3.749,0,0,1,0,5.305l-.065.065a.807.807,0,0,0-.163.9,1.247,1.247,0,0,1,.08.25.807.807,0,0,0,.664.355h.213a3.75,3.75,0,1,1,0,7.5h-.107a.829.829,0,0,0-.6,1.39l.074.074a3.727,3.727,0,0,1,1.1,2.654,3.755,3.755,0,0,1-3.752,3.752,3.726,3.726,0,0,1-2.653-1.1l-.065-.065a.806.806,0,0,0-.566-.231.847.847,0,0,0-.343.073.808.808,0,0,0-.492.738v.213a3.75,3.75,0,1,1-7.5,0Zm.332-3.172a3.312,3.312,0,0,1,2.168,3.06v.112a1.25,1.25,0,0,0,2.5,0v-.217a3.327,3.327,0,0,1,5.659-2.353l.076.075a1.261,1.261,0,0,0,.884.367,1.251,1.251,0,0,0,.884-2.137l-.084-.084a3.33,3.33,0,0,1,2.368-5.65h.112a1.25,1.25,0,0,0,0-2.5h-.217A3.312,3.312,0,0,1,23,11.743a1.254,1.254,0,0,1-.09-.331,3.3,3.3,0,0,1,.768-3.421l.075-.075a1.261,1.261,0,0,0,.367-.884,1.252,1.252,0,0,0-2.137-.885l-.084.085a3.3,3.3,0,0,1-2.32.946A3.256,3.256,0,0,1,18.257,6.9a3.315,3.315,0,0,1-2.008-3.036V3.75a1.25,1.25,0,0,0-2.5,0v.218A3.308,3.308,0,0,1,11.743,7a1.193,1.193,0,0,1-.331.091,3.316,3.316,0,0,1-3.421-.768l-.075-.075a1.257,1.257,0,0,0-.884-.367,1.24,1.24,0,0,0-.885.368,1.249,1.249,0,0,0,0,1.768l.085.085a3.276,3.276,0,0,1,.692,3.581A3.312,3.312,0,0,1,3.862,13.85H3.75a1.25,1.25,0,0,0,0,2.5h.218a3.329,3.329,0,0,1,2.353,5.659l-.075.076a1.257,1.257,0,0,0-.367.884,1.243,1.243,0,0,0,.368.885,1.248,1.248,0,0,0,1.768,0l.085-.084a3.357,3.357,0,0,1,2.328-.953A3.069,3.069,0,0,1,11.682,23.077ZM10,15a5,5,0,1,1,5,5A5,5,0,0,1,10,15Z" fill="#292929"/>
    </clipPath>
  </defs>
  <g id="Group_201" data-name="Group 201">
    <path id="Combined_Shape-2" data-name="Combined Shape" d="M11.35,26.249a.874.874,0,0,0-.605-.856.815.815,0,0,0-.331-.07.8.8,0,0,0-.556.223l-.074.074a3.749,3.749,0,0,1-5.305,0,3.777,3.777,0,0,1-1.1-2.653,3.726,3.726,0,0,1,1.1-2.653l.065-.065a.819.819,0,0,0,.157-.909.81.81,0,0,0-.739-.492H3.75a3.75,3.75,0,0,1,0-7.5.875.875,0,0,0,.857-.605.81.81,0,0,0-.153-.886L4.38,9.784a3.751,3.751,0,1,1,5.3-5.305l.065.065a.809.809,0,0,0,.9.162,1.314,1.314,0,0,1,.25-.08.807.807,0,0,0,.355-.664V3.75a3.75,3.75,0,0,1,7.5,0v.108a.839.839,0,0,0,.835.819.8.8,0,0,0,.556-.223l.074-.074a3.727,3.727,0,0,1,2.654-1.1,3.772,3.772,0,0,1,2.652,1.1,3.749,3.749,0,0,1,0,5.305l-.065.065a.807.807,0,0,0-.163.9,1.247,1.247,0,0,1,.08.25.807.807,0,0,0,.664.355h.213a3.75,3.75,0,1,1,0,7.5h-.107a.829.829,0,0,0-.6,1.39l.074.074a3.727,3.727,0,0,1,1.1,2.654,3.755,3.755,0,0,1-3.752,3.752,3.726,3.726,0,0,1-2.653-1.1l-.065-.065a.806.806,0,0,0-.566-.231.847.847,0,0,0-.343.073.808.808,0,0,0-.492.738v.213a3.75,3.75,0,1,1-7.5,0Zm.332-3.172a3.312,3.312,0,0,1,2.168,3.06v.112a1.25,1.25,0,0,0,2.5,0v-.217a3.327,3.327,0,0,1,5.659-2.353l.076.075a1.261,1.261,0,0,0,.884.367,1.251,1.251,0,0,0,.884-2.137l-.084-.084a3.33,3.33,0,0,1,2.368-5.65h.112a1.25,1.25,0,0,0,0-2.5h-.217A3.312,3.312,0,0,1,23,11.743a1.254,1.254,0,0,1-.09-.331,3.3,3.3,0,0,1,.768-3.421l.075-.075a1.261,1.261,0,0,0,.367-.884,1.252,1.252,0,0,0-2.137-.885l-.084.085a3.3,3.3,0,0,1-2.32.946A3.256,3.256,0,0,1,18.257,6.9a3.315,3.315,0,0,1-2.008-3.036V3.75a1.25,1.25,0,0,0-2.5,0v.218A3.308,3.308,0,0,1,11.743,7a1.193,1.193,0,0,1-.331.091,3.316,3.316,0,0,1-3.421-.768l-.075-.075a1.257,1.257,0,0,0-.884-.367,1.24,1.24,0,0,0-.885.368,1.249,1.249,0,0,0,0,1.768l.085.085a3.276,3.276,0,0,1,.692,3.581A3.312,3.312,0,0,1,3.862,13.85H3.75a1.25,1.25,0,0,0,0,2.5h.218a3.329,3.329,0,0,1,2.353,5.659l-.075.076a1.257,1.257,0,0,0-.367.884,1.243,1.243,0,0,0,.368.885,1.248,1.248,0,0,0,1.768,0l.085-.084a3.357,3.357,0,0,1,2.328-.953A3.069,3.069,0,0,1,11.682,23.077ZM10,15a5,5,0,1,1,5,5A5,5,0,0,1,10,15Z" fill="#292929"/>
    <g id="Mask_Group_201" data-name="Mask Group 201" clip-path="url(#clip-path)">
      <g id="COLOR_black" data-name="COLOR/ black">
        <rect id="Rectangle" width="30" height="30" fill="#292929"/>
      </g>
    </g>
  </g>
</svg>
