<svg id="twitter" xmlns="http://www.w3.org/2000/svg" xmlns:xlink="http://www.w3.org/1999/xlink" width="24.003" height="19.973" viewBox="0 0 24.003 19.973">
  <defs>
    <clipPath id="clip-path">
      <path id="Shape" d="M.517,17.885a1,1,0,0,1,.526-1.874,10.635,10.635,0,0,0,4.874-.967A9.639,9.639,0,0,1,1.608,9.759a11.66,11.66,0,0,1-.014-6.7A10.742,10.742,0,0,1,2.088,1.6a1,1,0,0,1,1.733-.168A9.659,9.659,0,0,0,11,5.517a5.481,5.481,0,0,1,9.133-4.122,9.883,9.883,0,0,0,2.291-1.2,1,1,0,0,1,1.548,1.053,8.71,8.71,0,0,1-1.994,3.775c.014.162.022.325.023.49,0,8.829-6.345,14.462-13.73,14.462A15.954,15.954,0,0,1,.517,17.885Z" transform="translate(0 2)" fill="#1ba5ec"/>
    </clipPath>
  </defs>
  <g id="Group_8" data-name="Group 8" transform="translate(0 -2)">
    <path id="Shape-2" data-name="Shape" d="M.517,17.885a1,1,0,0,1,.526-1.874,10.635,10.635,0,0,0,4.874-.967A9.639,9.639,0,0,1,1.608,9.759a11.66,11.66,0,0,1-.014-6.7A10.742,10.742,0,0,1,2.088,1.6a1,1,0,0,1,1.733-.168A9.659,9.659,0,0,0,11,5.517a5.481,5.481,0,0,1,9.133-4.122,9.883,9.883,0,0,0,2.291-1.2,1,1,0,0,1,1.548,1.053,8.71,8.71,0,0,1-1.994,3.775c.014.162.022.325.023.49,0,8.829-6.345,14.462-13.73,14.462A15.954,15.954,0,0,1,.517,17.885Z" transform="translate(0 2)" fill="#1ba5ec"/>
    <g id="Mask_Group_8" data-name="Mask Group 8" clip-path="url(#clip-path)">
      <g id="_Color" data-name="🎨Color">
        <rect id="Rectangle" width="24" height="24" fill="#1ba5ec"/>
      </g>
    </g>
  </g>
</svg>
